<?xml version="1.0" encoding="utf-8"?>
<svg version="1.1" xmlns:xlink="http://www.w3.org/1999/xlink" width="70px" height="70px" xmlns="http://www.w3.org/2000/svg">
  <g transform="matrix(1 0 0 1 -540 -375 )">
    <path d="M 575 375  C 594.6 375  610 390.4  610 410  C 610 429.6  594.6 445  575 445  C 555.4 445  540 429.6  540 410  C 540 390.4  555.4 375  575 375  Z " fill-rule="nonzero" fill="#ffffff" stroke="none" />
    <path d="M 575 375.5  C 594.32 375.5  609.5 390.68  609.5 410  C 609.5 429.32  594.32 444.5  575 444.5  C 555.68 444.5  540.5 429.32  540.5 410  C 540.5 390.68  555.68 375.5  575 375.5  Z " stroke-width="1" stroke="#d900b6" fill="none" />
  </g>
</svg>